<?xml version="1.0" standalone="no"?>
<!DOCTYPE svg PUBLIC "-//W3C//DTD SVG 20010904//EN"
 "http://www.w3.org/TR/2001/REC-SVG-20010904/DTD/svg10.dtd">
<svg version="1.0" xmlns="http://www.w3.org/2000/svg"
 width="500.000000pt" height="500.000000pt" viewBox="0 0 500.000000 500.000000"
 preserveAspectRatio="xMidYMid meet">

<g transform="translate(0.000000,500.000000) scale(0.100000,-0.100000)"
fill="#000000" stroke="none">
<path d="M2646 2913 c-98 -20 -165 -49 -371 -160 -99 -53 -193 -103 -210 -112
-19 -9 -91 -19 -209 -27 -225 -16 -354 -31 -431 -50 -148 -36 -334 -127 -485
-237 -30 -22 -56 -41 -57 -41 -1 -1 11 -28 27 -60 31 -61 39 -121 18 -130 -13
-5 12 -32 51 -57 9 -6 12 -12 6 -15 -5 -2 -28 -16 -50 -30 l-40 -25 185 6
c149 5 187 10 197 22 10 13 17 10 47 -21 42 -41 43 -40 -69 -51 -33 -3 -116
-13 -185 -22 -117 -16 -122 -17 -80 -25 46 -8 308 3 1860 82 432 22 897 46
1034 52 140 7 240 15 230 20 -11 4 -103 13 -206 20 l-187 13 34 37 c34 37 36
37 162 53 80 11 134 22 145 32 9 8 22 37 27 64 14 65 14 176 0 185 -6 3 -60
-42 -122 -102 l-112 -109 -6 70 c-10 120 -72 210 -178 259 -34 15 -67 21 -126
21 -71 0 -88 -4 -148 -33 -100 -49 -155 -138 -169 -272 -3 -24 -7 -26 -128
-42 -376 -52 -1107 -128 -1226 -128 l-41 0 -5 78 c-6 93 -29 144 -95 208 -65
62 -137 87 -233 82 -175 -10 -293 -125 -294 -288 -1 -36 3 -78 7 -93 l8 -29
-110 4 c-60 1 -113 6 -117 10 -4 4 -1 14 5 22 11 13 5 30 -30 94 -24 45 -40
86 -36 95 3 8 54 41 114 71 59 31 132 76 162 100 55 45 121 69 259 96 94 17
417 44 685 56 135 6 147 5 141 -11 -6 -14 0 -16 37 -13 25 2 44 8 44 15 0 6 3
14 6 17 3 4 95 13 205 21 260 19 410 41 510 72 106 34 121 45 108 79 -16 47
-51 63 -157 74 -137 14 -374 14 -426 0 -43 -11 -97 -39 -179 -91 -42 -27 -44
-29 -19 -29 30 0 58 -37 37 -50 -16 -10 -130 -21 -141 -14 -5 3 -9 -2 -9 -10
0 -21 -44 -48 -72 -44 -20 3 -17 8 30 43 29 22 66 52 82 67 39 35 133 99 190
128 79 40 136 50 300 50 219 0 413 -26 710 -97 l115 -27 -115 -8 c-138 -9
-270 -31 -363 -59 -83 -25 -83 -36 -1 -15 154 40 262 49 539 48 149 -1 291 -4
318 -8 l47 -6 0 34 c0 19 -3 37 -6 41 -4 3 -25 -3 -47 -14 -54 -28 -164 -35
-247 -16 -36 8 -132 31 -215 50 -162 38 -340 71 -475 87 -124 15 -372 11 -454
-7z m922 -420 c-10 -2 -28 -2 -40 0 -13 2 -5 4 17 4 22 1 32 -1 23 -4z m-71
-9 c-3 -3 -12 -4 -19 -1 -8 3 -5 6 6 6 11 1 17 -2 13 -5z m160 -20 c25 -14 42
-28 39 -31 -3 -3 -18 4 -34 16 -17 11 -40 25 -53 30 -13 5 -18 10 -10 10 8 1
34 -11 58 -25z m-197 12 c0 -2 -7 -7 -16 -10 -8 -3 -12 -2 -9 4 6 10 25 14 25
6z m103 -88 c-3 -29 -11 -49 -21 -53 -21 -8 -29 3 -38 50 l-7 40 20 -24 19
-24 14 32 c17 41 19 37 13 -21z m-1988 -8 c13 -5 1 -6 -32 -3 -33 4 -67 0 -97
-10 -26 -9 -44 -12 -41 -7 15 24 129 37 170 20z m2146 -40 c7 -22 10 -42 8
-44 -2 -2 -34 -7 -70 -10 -92 -10 -98 9 -21 62 31 22 60 38 64 35 4 -2 13 -22
19 -43z m25 15 c18 -44 18 -116 0 -160 -8 -19 -17 -35 -20 -35 -3 0 2 16 10
35 18 44 18 116 0 160 -8 19 -13 35 -10 35 3 0 12 -16 20 -35z m-2226 5 c-8
-5 -24 -9 -35 -9 l-20 0 20 9 c11 5 27 9 35 9 13 1 13 0 0 -9z m1968 -70 c-3
-11 -21 -16 -76 -18 -76 -3 -81 1 -61 43 7 16 8 14 4 -9 -6 -28 -5 -29 31 -23
20 3 39 9 42 12 3 3 -9 21 -28 40 l-33 34 62 -32 c39 -20 60 -37 59 -47z
m-155 11 c-3 -34 -1 -73 6 -92 9 -25 9 -31 0 -22 -15 15 -23 92 -15 137 10 55
15 43 9 -23z m-1613 -43 c0 -7 -6 -4 -12 7 -6 11 -20 31 -32 45 -11 14 -6 11
12 -7 17 -18 32 -38 32 -45z m-186 25 c-11 -78 -45 -77 -58 2 l-7 40 20 -30
20 -30 12 33 c16 46 21 40 13 -15z m2026 -3 c0 -24 -29 -38 -40 -20 -12 19 -1
40 21 40 12 0 19 -7 19 -20z m-1865 -40 c10 -22 16 -42 14 -43 -2 -2 -32 -8
-67 -13 -51 -8 -65 -8 -75 4 -9 12 -7 18 13 31 13 9 36 26 50 38 35 31 44 29
65 -17z m-285 -10 c87 -44 82 -55 -30 -63 l-65 -5 48 15 c26 8 47 17 47 21 -1
4 -17 19 -37 35 -47 35 -37 34 37 -3z m329 -59 c1 -48 -5 -35 -12 24 -4 32 -3
43 3 30 5 -11 9 -35 9 -54z m1771 59 c12 -8 11 -17 -12 -62 -26 -52 -26 -52
-21 -15 6 43 1 45 -47 16 -35 -21 -35 -21 10 25 48 50 48 50 70 36z m136 -25
c51 -39 51 -41 1 -20 -54 22 -52 25 -29 -45 2 -8 -9 5 -25 30 -21 31 -27 49
-20 58 14 18 22 15 73 -23z m-2340 -32 c0 -35 7 -72 17 -93 14 -27 14 -31 2
-15 -23 28 -38 93 -30 132 3 18 7 33 8 33 1 0 2 -26 3 -57z m26 25 c-8 -8 -9
-4 -5 13 4 13 8 18 11 10 2 -7 -1 -18 -6 -23z m180 -10 c-16 -16 -15 -28 2
-28 8 0 17 8 19 18 4 13 5 11 6 -5 1 -17 -5 -23 -19 -23 -25 0 -38 29 -19 41
20 12 25 11 11 -3z m1927 -97 c86 -44 168 -35 244 27 l42 34 -44 -41 c-64 -60
-120 -72 -206 -47 -45 14 -125 77 -125 99 0 5 12 -6 26 -23 15 -17 43 -39 63
-49z m-1939 23 c0 -7 -40 -84 -43 -84 -2 0 -1 14 1 31 4 30 4 31 -19 19 -13
-7 -32 -19 -41 -28 -34 -29 -18 -3 25 41 33 35 46 43 60 35 9 -5 17 -11 17
-14z m127 -11 c60 -41 64 -54 7 -24 -59 32 -60 30 -36 -39 3 -8 -9 4 -27 28
-26 35 -30 46 -20 58 16 19 15 19 76 -23z m81 -35 c-24 -44 -106 -108 -137
-108 -9 0 2 9 24 19 52 23 100 72 117 117 7 19 14 31 16 25 2 -6 -7 -30 -20
-53z m1650 -26 c-28 -3 -1604 -82 -1637 -82 -21 0 -21 2 11 39 28 33 35 38 48
27 23 -19 1501 57 1515 79 8 12 16 8 48 -23 36 -35 37 -37 15 -40z m-1905 -72
c6 0 8 -3 4 -6 -8 -8 -89 39 -108 62 -8 10 10 1 40 -19 29 -20 58 -37 64 -37z
m-13 34 c0 -2 -9 0 -20 6 -11 6 -20 13 -20 16 0 2 9 0 20 -6 11 -6 20 -13 20
-16z m93 -51 c-13 -2 -33 -2 -45 0 -13 2 -3 4 22 4 25 0 35 -2 23 -4z"/>
<path d="M3665 2350 c-25 -26 -27 -33 -15 -40 22 -14 70 -12 70 3 -1 6 -6 25
-13 40 l-12 28 -30 -31z"/>
<path d="M3530 2275 c0 -8 5 -15 10 -15 6 0 10 7 10 15 0 8 -4 15 -10 15 -5 0
-10 -7 -10 -15z"/>
<path d="M1641 2246 c-13 -14 -20 -29 -16 -35 6 -11 75 -16 75 -6 0 8 -30 65
-34 65 -1 0 -13 -11 -25 -24z"/>
<path d="M3513 2650 c-29 -4 -82 -21 -118 -38 -72 -34 -90 -52 -22 -23 53 23
136 41 186 41 60 0 165 -37 216 -75 57 -44 63 -44 29 0 -32 42 -130 92 -194
98 -25 3 -68 1 -97 -3z"/>
<path d="M3033 2619 c-10 -3 -49 -10 -88 -14 -113 -11 -425 -62 -632 -102
-106 -20 -195 -34 -198 -31 -3 3 -1 17 5 32 6 18 6 25 0 21 -6 -3 -10 -13 -10
-21 0 -26 -37 -51 -86 -59 -80 -12 -154 -43 -154 -66 0 -35 40 -100 99 -160
79 -81 94 -79 65 9 -13 37 -24 91 -24 120 0 52 1 53 37 68 20 9 44 13 55 11
10 -3 18 -2 18 3 0 20 900 170 937 156 18 -7 10 -91 -19 -186 -24 -76 -49
-115 -92 -141 -40 -24 -24 -24 57 1 80 25 109 56 137 147 23 74 27 185 8 201
-16 12 -92 20 -115 11z"/>
<path d="M4018 2613 c7 -3 16 -2 19 1 4 3 -2 6 -13 5 -11 0 -14 -3 -6 -6z"/>
<path d="M2808 2223 c7 -3 16 -2 19 1 4 3 -2 6 -13 5 -11 0 -14 -3 -6 -6z"/>
</g>
</svg>
